<?xml version="1.0" encoding="utf-8"?>
<!-- Generator: Adobe Illustrator 26.2.1, SVG Export Plug-In . SVG Version: 6.00 Build 0)  -->
<svg version="1.1" id="レイヤー_3" xmlns="http://www.w3.org/2000/svg" xmlns:xlink="http://www.w3.org/1999/xlink" x="0px"
	 y="0px" viewBox="0 0 150.478 241.002" style="enable-background:new 0 0 150.478 241.002;" xml:space="preserve">
<style type="text/css">
	.st0{fill:none;stroke:#000000;}
</style>
<path class="st0" d="M149.978,168.501c0,42.001-29.4,72.001-94.801,72.001c-11.4,0-38.101-2.399-54.601-6.3l8.4-46.201
	c10.5,3.6,31.8,8.1,45.301,8.1c23.7,0,43.2-5.4,43.2-31.2c0-18-15.3-27.601-43.5-27.601h-24v-39.9h14.1c36.9,0,49.5-10.2,49.5-29.4
	c0-16.5-13.2-23.4-29.7-23.4c-13.2,0-33,4.2-48.601,12.9l-12-43.2c12.3-6.6,40.5-13.8,63.3-13.8c47.701,0,77.401,16.2,77.401,61.801
	c0,29.7-22.2,45.3-35.4,47.7C131.978,114.201,149.978,132.801,149.978,168.501z"/>
</svg>
