<?xml version="1.0" encoding="utf-8"?>
<!-- Generator: Adobe Illustrator 26.2.1, SVG Export Plug-In . SVG Version: 6.00 Build 0)  -->
<svg version="1.1" id="レイヤー_3" xmlns="http://www.w3.org/2000/svg" xmlns:xlink="http://www.w3.org/1999/xlink" x="0px"
	 y="0px" viewBox="0 0 152.567 236.502" style="enable-background:new 0 0 152.567 236.502;" xml:space="preserve">
<style type="text/css">
	.st0{fill:none;stroke:#000000;}
</style>
<path class="st0" d="M82.767,83.301c39.6,0,69.301,23.4,69.301,72.001c0,59.101-40.201,80.701-92.101,80.701
	c-16.5,0-42.9-3.3-59.401-7.5l7.2-45.301c13.5,4.2,35.701,8.4,51.9,8.4c19.2,0,41.401-6.6,41.401-36.9c0-19.2-12.9-29.4-32.101-29.4
	c-15.3,0-28.8,5.4-39.601,12l-26.1-11.7L17.066,0.5h124.801v43.201H57.566l-6.9,46.5C60.866,85.101,73.466,83.301,82.767,83.301z"/>
</svg>
