<?xml version="1.0" encoding="utf-8"?>
<!-- Generator: Adobe Illustrator 26.2.1, SVG Export Plug-In . SVG Version: 6.00 Build 0)  -->
<svg version="1.1" id="レイヤー_3" xmlns="http://www.w3.org/2000/svg" xmlns:xlink="http://www.w3.org/1999/xlink" x="0px"
	 y="0px" viewBox="0 0 170.502 242.524" style="enable-background:new 0 0 170.502 242.524;" xml:space="preserve">
<style type="text/css">
	.st0{fill:none;stroke:#000000;}
</style>
<path class="st0" d="M98.601,87.822c51.3,0,71.401,33.6,71.401,69.901c0,39.3-21,84.301-84.601,84.301
	c-43.8,0-84.901-26.7-84.901-97.202C0.5,52.122,55.701,5.021,141.501,0.521l9.9,40.8c-56.7,2.1-89.101,30.9-99.601,64.5
	c9-9.6,29.101-18,46.5-18H98.601z"/>
<path class="st0" d="M86.301,199.123c23.1,0,34.8-17.4,34.8-39c0-21.9-12-33.601-33.6-33.601c-17.4,0-32.7,9.3-38.4,21.3
	C49.101,179.923,63.5,199.123,86.301,199.123z"/>
</svg>
