<?xml version="1.0" encoding="utf-8"?>
<!-- Generator: Adobe Illustrator 26.2.1, SVG Export Plug-In . SVG Version: 6.00 Build 0)  -->
<svg version="1.1" id="レイヤー_3" xmlns="http://www.w3.org/2000/svg" xmlns:xlink="http://www.w3.org/1999/xlink" x="0px"
	 y="0px" viewBox="0 0 172.002 242.803" style="enable-background:new 0 0 172.002 242.803;" xml:space="preserve">
<style type="text/css">
	.st0{fill:none;stroke:#000000;}
</style>
<path class="st0" d="M163.102,61.401c0,31.5-16.5,46.5-41.101,53.7c30.601,11.1,49.501,27,49.501,62.401
	c0,53.4-48,64.801-87.601,64.801c-32.101,0-83.401-10.5-83.401-64.801c0-31.2,18.3-49.801,48.9-61.201
	c-26.1-9.3-42.9-24-42.9-55.201C6.5,20,42.5,0.5,85.101,0.5c40.5,0,78,13.2,78,60.601V61.401z"/>
<path class="st0" d="M120.801,171.802c0-17.7-13.2-28.2-35.4-33c-23.7,4.5-33.9,16.8-33.9,33.9c0,21.3,16.2,28.5,34.2,28.5
	c17.4,0,35.101-5.1,35.101-29.101V171.802z"/>
<path class="st0" d="M115.401,63.801c0-15.3-12.3-24.601-30.3-24.601c-17.101,0-30,7.5-30,27c0,15.6,14.4,26.1,30.3,30.3
	c18.9-4.5,30-12.6,30-32.4V63.801z"/>
</svg>
