<?xml version="1.0" encoding="utf-8"?>
<!-- Generator: Adobe Illustrator 26.2.1, SVG Export Plug-In . SVG Version: 6.00 Build 0)  -->
<svg version="1.1" id="レイヤー_3" xmlns="http://www.w3.org/2000/svg" xmlns:xlink="http://www.w3.org/1999/xlink" x="0px"
	 y="0px" viewBox="0 0 170.502 241.619" style="enable-background:new 0 0 170.502 241.619;" xml:space="preserve">
<style type="text/css">
	.st0{fill:none;stroke:#000000;}
</style>
<path class="st0" d="M73.101,150.501c-51,0-72.601-34.2-72.601-69.601C0.5,44,21.5,0.5,85.101,0.5c43.5,0,84.901,24.3,84.901,96.001
	c0,92.701-55.201,141.001-147.302,144.602l-9.9-43.501c64.201-2.7,99.901-28.5,107.101-65.101c-7.8,9.9-27,18-46.5,18H73.101z"/>
<path class="st0" d="M84.201,42.2c-22.8,0-34.5,15.6-34.5,36.601c0,21.6,13.2,32.4,34.8,32.4c17.4,0,31.8-9.3,36.9-20.4
	c0-29.4-14.1-48.601-36.9-48.601H84.201z"/>
</svg>
